<svg version="1" xmlns="http://www.w3.org/2000/svg" width="933.333" height="933.333" viewBox="0 0 700.000000 700.000000"><path d="M300 110.5V123h73.8l.3 3.7c.2 2.1.3 16.3.1 31.5l-.3 27.8H337v25h36.9l.3 28.2c.2 15.6.1 29.8-.1 31.5l-.3 3.3H300v27h99.2l-.5-3.3c-.4-1.7-3.3-22.6-6.7-46.2-3.3-23.7-6.3-44.3-6.8-45.8-.5-2.1-2 5.7-5.2 27.4-2.5 16.7-4.7 29.4-4.9 28.4-.3-1.8 1.3-29.4 2.6-43.8.5-6.4.5-6.7-1.6-6.7-2 0-2.1-.4-2.1-12.5 0-11.8.1-12.5 2-12.5 1.1 0 2-.3 2-.8 0-.4-.7-9.9-1.5-21.2-2.3-32.5-1.6-31.8 3.5 3 2.8 19.9 4.9 31.5 5.3 30 .8-2.9 14.7-95.6 14.7-97.6 0-1.2-8.5-1.4-50-1.4h-50v12.5zM501.4 99.7c.2 1 3.7 23.7 7.7 50.5s7.5 48.5 7.7 48.3c.3-.2 2.6-15.4 5.2-33.7 2.6-18.3 4.8-32 4.9-30.3 0 1.6-.6 12.2-1.4 23.5-2 27.6-2 28 .5 28 1.9 0 2 .7 2 12.5s-.1 12.5-2 12.5c-2.5 0-2.5 1.1-.5 29 .8 11.3 1.4 21.8 1.4 23.5-.1 1.6-2.3-11.1-4.9-28.3-2.7-17.3-5-31.6-5.2-31.8-.3-.3-13.9 95-13.8 96.8 0 .5 22.3.8 49.5.8H602v-27h-36.9c-34.3 0-36.9-.1-37.2-1.8-.2-.9-.3-15.1-.1-31.5l.3-29.7H564v-25h-35.9l-.3-29.3c-.2-16-.1-30.2.1-31.5l.3-2.2H602V98h-50.6c-47.6 0-50.5.1-50 1.7zM99.1 99.5c.3.2 22.3 5.8 49 12.4 26.6 6.5 49.2 12.2 50.2 12.6 1.6.7 1.7-.3 1.7-12.4V99h-50.7c-27.8 0-50.4.2-50.2.5zM97.1 101.6c0 1.1.3 1.4.6.6.3-.7.2-1.6-.1-1.9-.3-.4-.6.2-.5 1.3zM98.1 162.1c-.1 28.9-.3 71-.6 93.5-.3 24.6-.1 39.5.4 37.4.5-1.9 3.5-22.1 6.7-44.8 3.5-24.7 6.1-40.4 6.6-39 .3 1.3 3 21.2 6 44.3l5.3 41.9.3-35.4.2-35.5 25.4 38.1 25.4 38.1 12.7.7c7 .4 12.9.5 13.1.3.2-.2-16.7-25.8-37.6-57-20.9-31.1-38-57-38-57.5 0-.6 16.7-14.6 37.2-31.3 35.7-29.2 37-30.4 34-31-1.7-.3-18.7-.8-37.9-1l-34.8-.4-5.7 39c-3.1 21.4-5.7 39.4-5.8 40-.1.5-3-20.2-6.5-46l-6.3-47-.1 52.6zM300 413v13h73.8l.3 3.2c.2 1.8.3 16 .1 31.5l-.3 28.3h-37l.3 12.2.3 12.3 18.2.3 18.2.2.3 28.3c.2 15.5.1 29.7-.1 31.4l-.3 3.3H300v26h99.2l-.6-2.7c-.3-1.6-3.3-22.6-6.6-46.8-3.4-24.2-6.4-44.8-6.8-45.9-.5-1.1-2.5 10-5.2 28.5-2.5 16.7-4.7 29.3-4.9 27.9-.3-2.4 1.3-31.2 2.5-43.8.6-5.8.5-6.2-1.5-6.2s-2.1-.4-2.1-12.5c0-11.8.1-12.5 2-12.5 1.1 0 2-.6 2-1.3 0-.6-.7-10.4-1.5-21.7-2.3-31.7-1.7-31.1 3.5 3.5 2.9 20 4.9 31.1 5.3 29.5.8-2.9 14.7-95.3 14.7-97.5 0-1.3-6.4-1.5-50-1.5h-50v13zM576.8 469.2l-.3 69.3-25.9-66c-14.2-36.3-26.5-67.1-27.2-68.5-1.1-2.1-1.3 1.6-1.4 24.5l-.1 27-10-26.4c-5.4-14.6-10.1-26.7-10.4-26.9-.3-.3-.5 44.8-.5 100.1V603h21l.2-72.7.3-72.8 27 72.5 27 72.5.5-30.7.5-30.8 11.4 29.3c6.3 16 11.8 29.9 12.2 30.7.5.8.9-44.1.9-99.8V400h-25l-.2 69.2zM99.4 403.7c5.3 17.9 49 156 49.5 156.5.4.5 47-145.4 49.8-156.3.5-1.8-.3-1.9-12.1-1.9-6.9 0-12.6.3-12.6.7 0 1.3-25.2 134.8-25.5 135.1-.4.5-1.1-2.8-14.1-72.6L122.6 402h-11.9c-10.8 0-11.8.2-11.3 1.7zM148.6 564c-1.1 2.5-11.6 36.3-11.6 37.2 0 .4 5.6.8 12.4.8h12.4l-6-18.8c-3.2-10.3-6-19.2-6.2-19.7-.2-.6-.7-.3-1 .5z"/></svg>