<svg xmlns="http://www.w3.org/2000/svg" width="64" height="64"><path d="M31 2C15.01 2 2 15.009 2 31s13.01 29 29 29 29-13.009 29-29S46.99 2 31 2zm0 56C16.112 58 4 45.888 4 31S16.112 4 31 4s27 12.112 27 27-12.112 27-27 27z"/><path d="M31 50a1 1 0 00-1 1v2a1 1 0 102 0v-2a1 1 0 00-1-1zm6.013.077a1 1 0 00-1.932.518l.518 1.932a1 1 0 101.932-.518l-.518-1.932zM21.75 47.521a1.001 1.001 0 00-1.366.366l-1 1.732a1 1 0 001.732 1l1-1.732a1 1 0 00-.366-1.366zm19.866.367a1 1 0 00-1.732 1l1 1.732a1 1 0 101.732-1l-1-1.732zM26.212 49.37a1 1 0 00-1.225.707l-.518 1.932a1 1 0 001.932.518l.518-1.932a1 1 0 00-.707-1.225zm13.98-10.592L32.414 31l7.778-7.778a.999.999 0 10-1.414-1.414L31 29.586l-7.778-7.778a.999.999 0 10-1.414 1.414L29.586 31l-7.778 7.778a.999.999 0 101.414 1.414L31 32.414l7.778 7.778a.997.997 0 001.414 0 .999.999 0 000-1.414zm-1.841-27.456c.713.267 1.42.576 2.1.919a1.002 1.002 0 001.343-.442 1 1 0 00-.442-1.343 22.828 22.828 0 00-2.301-1.007.999.999 0 10-.7 1.873z"/><path d="M16.15 16.151a21.079 21.079 0 0118.188-5.886 1 1 0 10.317-1.975 23.08 23.08 0 00-19.918 6.446c-8.967 8.967-8.967 23.559 0 32.526a.997.997 0 001.414 0 .999.999 0 000-1.414c-8.188-8.187-8.188-21.509-.001-29.697zm31.114-1.414a23.162 23.162 0 00-2.094-1.856 1 1 0 00-1.234 1.574 21.205 21.205 0 011.914 1.696c8.188 8.188 8.188 21.51 0 29.698a.999.999 0 101.414 1.414c8.966-8.967 8.966-23.559 0-32.526z"/></svg>