<svg xmlns="http://www.w3.org/2000/svg" id="a6674b1b-b8dd-4dc0-a23c-2d625b6420c6" data-name="logo 2" viewBox="0 0 500 500"><defs><style>.aea7c161-7f8e-493b-a3b7-39ff9dd837fc{fill:white}</style></defs><title/><rect width="500" height="500" class="aea7c161-7f8e-493b-a3b7-39ff9dd837fc"/><polygon points="358 286 358 431 373 431 373 286 430 431 430 286 412 286 412 431 358 286"/><path d="M701,414q9.5-63,19-126H648v18h53l18,127H648V414h53V306l3,45H675v18h29Z" transform="translate(-434 -218)"/><polygon points="88 214.5 87.06 207.3 69.33 71 143 89 143 71 70 71 69.5 214 87.5 88 142.5 89 88 133.5 143 215.5 124.31 215.16 88 160.5 88 214.5"/><path d="M504.5,505l45,143h-18l45-143h-18q-9.25,49.25-18.5,98.5-9.25-49.25-18.5-98.5Z" transform="translate(-434 -218)"/><path d="M811,414q-9.5-63-19-126h72v18H811L793,433h71V414H811V306l-3,45h29v18H808Z" transform="translate(-434 -218)"/><path d="M701,630q9.5-63,19-126H648v18h53l18,127H648V630h53V522l3,45H675v18h29Z" transform="translate(-434 -218)"/></svg>