<svg xmlns="http://www.w3.org/2000/svg" id="a6674b1b-b8dd-4dc0-a23c-2d625b6420c6" data-name="logo 2" viewBox="0 0 500 500"><defs><style></style></defs><path d="M358 286v145h15V286l57 145V286h-18v145l-54-145z"/><path d="M701 414l19-126h-72v18h53l18 127h-71v-19h53V306l3 45h-29v18h29z" transform="translate(-434 -218)"/><path d="M88 214.5l-.94-7.2L69.33 71 143 89V71H70l-.5 143 18-126 55 1L88 133.5l55 82-18.69-.34L88 160.5v54z"/><path d="M504.5 505l45 143h-18l45-143h-18L540 603.5 521.5 505zM811 414l-19-126h72v18h-53l-18 127h71v-19h-53V306l-3 45h29v18h-29zM701 630l19-126h-72v18h53l18 127h-71v-19h53V522l3 45h-29v18h29z" transform="translate(-434 -218)"/></svg>