<?xml version="1.0" encoding="utf-8"?>
<!-- Generator: Adobe Illustrator 24.0.0, SVG Export Plug-In . SVG Version: 6.00 Build 0)  -->
<svg version="1.1" id="working" xmlns="http://www.w3.org/2000/svg" xmlns:xlink="http://www.w3.org/1999/xlink" x="0px" y="0px"
	 viewBox="0 0 328.2 279.4" style="enable-background:new 0 0 328.2 279.4;" xml:space="preserve">
<style type="text/css">
	.st0{opacity:0.18;fill:#05386B;enable-background:new    ;}
	.st1{fill:#FFFFFF;}
	.st2{fill:url(#SVGID_1_);}
	.st3{fill:#05386B;}
	.st4{fill:#FDBAAC;}
	.st5{fill:#473F47;}
	.st6{fill:url(#SVGID_2_);}
	.st7{fill:#DEA095;}
	.st8{fill:#A0522D;}
	.st9{fill:url(#SVGID_3_);}
	.st10{fill:url(#SVGID_4_);}
	.st11{fill:url(#SVGID_5_);}
	.st12{fill:#808080;}
	.st13{fill:url(#SVGID_6_);}
	.st14{fill:#FFFF00;}
	.st15{opacity:0.2;}
	.st16{fill:url(#SVGID_7_);}
	.st17{fill:url(#SVGID_8_);}
	.st18{fill:url(#SVGID_9_);}
	.st19{fill:url(#SVGID_10_);}
</style>
<g id="background">
	<path class="st0" d="M274.3,30.6c-3.2-5.6-7.2-10.7-12-15C251,5.6,235.6,1.1,220.6,0.2s-30.1,1.6-45,4c-8.3,1.4-16.8,2.8-24.3,6.8
		c-12.1,6.4-19.5,18.4-25.3,30.4c-5.7,12-9.3,25.3-22.7,31c-8.4,3.6-18.4,4.8-27.2,7.8c-17,5.9-33.5,14-47.4,25.6
		C15.2,117.1,7.6,140.4,3.3,157s-4.9,34.6,0.4,51c8.6,26.4,31.8,46.1,57.5,56.4c25.8,10.4,54,12.6,81.7,13.5c24,0.8,49.1,2.3,73,0.5
		c9.4-0.7,18.1-1.6,27.8-1.7c11.4,0,22.8-1.6,33.8-4.8c17.5-5.4,33.8-16.4,42.7-32.4c12-21.7,8.9-48.8,0.7-72.2
		s-20.8-45.2-27.6-69.1c-4-14.4-5.9-29.4-9.8-43.9C281.6,46.1,278.4,38.1,274.3,30.6z"/>
	<path class="st0" d="M109.6,250.2c-3.3,1.4-6.8,4.7-5.5,8.1c14.5,5.3,30.3,5.3,45.7,5.2c37.4-0.2,74.7-0.3,112-0.7
		c3.1,0,6.4-0.1,9.1-1.6s4.7-4.9,3.5-7.8c-1.1-2.7-4.3-3.7-7.1-4.4c-9.3-2.3-18.8-3.7-28.4-4.5c-7.8-0.6-16.6-1.1-21.6-7.1
		c-1.9-2.3-3-5.1-5-7.3c-11.7-13.1-39.1-7.3-49.1,3.9C148,251.2,128.5,242,109.6,250.2z"/>
</g>
<g id="chair">
	<path class="st1" d="M146.1,148c-2.2,6.4-4.1,12.9-4.2,19.6c0,6.7,2,13.7,6.8,18.5c7,7,17.8,7.8,27.6,8.2l13,0.5
		c5.1,0.2,10.3,0.4,15.3-0.6s9.9-3.4,13-7.5c2-2.9,3.3-6.2,3.9-9.7c3.5-17.1-2.2-35.3-12.9-49.1c-3.1-4.2-6.9-7.8-11.3-10.7
		c-7.2-4.6-28.7-11.5-35.8-3.8c-3.2,3.5-5.2,10.6-7.3,14.8C151.2,134.7,148.5,141.3,146.1,148z"/>
	
		<linearGradient id="SVGID_1_" gradientUnits="userSpaceOnUse" x1="280.2093" y1="506.1773" x2="273.4493" y2="358.3573" gradientTransform="matrix(1 0 0 1 -96.21 -303.39)">
		<stop  offset="1.000000e-02" style="stop-color:#000000"/>
		<stop  offset="8.000000e-02" style="stop-color:#000000;stop-opacity:0.69"/>
		<stop  offset="0.21" style="stop-color:#000000;stop-opacity:0.32"/>
		<stop  offset="1" style="stop-color:#000000;stop-opacity:0"/>
	</linearGradient>
	<path class="st2" d="M152.8,144.4c-1.8,5.1-3.4,10.4-3.4,15.9s1.6,11.1,5.5,14.9c5.6,5.6,14.4,6.3,22.3,6.6l10.5,0.4
		c4.1,0.3,8.3,0.2,12.4-0.5c4-0.8,8-2.8,10.5-6.1c1.6-2.3,2.7-5,3.2-7.8c2.9-13.8-1.8-28.6-10.5-39.7c-2.5-3.4-5.6-6.3-9.1-8.7
		c-5.8-3.7-23.2-9.3-28.9-3.1c-2.6,2.8-4.2,8.6-5.9,12C156.9,133.6,154.7,138.9,152.8,144.4z"/>
</g>
<g id="body">
	<g id="upperbody">
		<path class="st3" d="M193.7,84.1c0,0,12.2,5.3,13.6,6.5c1.3,1.1-2.2,74.3-2.5,77.9s-19.8,4.2-28.2,2.5c-5.6-1.1-11.1-2.8-16.5-5
			c0,0-2.7-75.6-1-77s17.8-6.3,17.8-6.3L193.7,84.1z"/>
		<path class="st4" d="M189.3,74.9c0.1,0.5,0.2,1,0.2,1.4c0.1,1.9-0.1,3.9,0.5,5.8c0.2,0.7,0.5,1.3,0.9,1.9c1.4,2.2-0.3,5.8-1.5,7.8
			c-1.5,2.5-4,5-7.1,5.3c-3.9,0.4-5.6-4-6.3-7.1c-0.4-1.8-0.8-3.1-0.1-4.8s1.7-3.4,2.2-5.3c0.4-2.1,0.7-4.3,0.8-6.5
			c0-0.6,0.2-1.2,0.5-1.7c0.5-0.7,1.2-1.1,2-1.3c0.8-0.1,1.6-0.2,2.4-0.1c1.2,0,2.4,0.3,3.5,0.9C188.3,72.2,189.1,73.5,189.3,74.9z"
			/>
		<path class="st1" d="M176.2,82.9c0,0-0.6,8.3,3.2,13.6c0,0-1.2,2.2-2.4,2.3s-4.8-6.7-4-12.1C173.4,83.6,175.5,82.1,176.2,82.9z"/>
		<path class="st1" d="M191,84c0,0-3.7,11.5-7.7,13.1c0,0-1,0.7,2,2.2s10.5-8.1,8.8-14.4c-0.4-1.7-1.6-3-3.3-3.5L191,84z"/>
		<g id="rightArm">
			<path class="st4" d="M220,114.8c0,0,7.9,16.5,7.1,21c-0.6,3.2-6.7,5.9-9.1,7.4s-4.8,3.2-7.3,4.2s-5.3,0.6-7.9,0.5l-13-0.4
				c-0.6,0-1.5-0.2-1.5-0.9c0-0.4,0.3-0.7,0.6-0.9c1-0.7,2.1-1.1,3.3-1.2c2.8-0.2,5.6-0.7,8.3-1.6l15-10.3l-3.6-6.7L220,114.8z"/>
			<path class="st3" d="M220.3,106.8c1.3,1.8,2.2,3.2,2.4,3.5c0.3,0.4,0.6,0.9,0.8,1.4c0.1,1-0.2,1.9-0.8,2.7c-1.4,2-3.4,3.4-5.2,5
				c-2,2-3.8,4.2-5.4,6.6c-1.2-0.9-2.3-1.9-3.3-3c-1.9-1.4-2.9-3.8-2.6-6.2l-0.2-12.9l-0.1-6.4c0-1.1-1.4-6.1-0.7-7
				C206.8,88.3,215.8,100.5,220.3,106.8z"/>
		</g>
		<g id="leftArm">
			<path class="st4" d="M146.5,114.8c-1.6,3.4-3.1,6.8-4.5,10.4c-1,2.4-1.8,5-2.4,7.5c-0.2,1-0.7,2.4-0.3,3.4
				c0.6,1.5,2.9,2.7,4.2,3.5c4.2,2.6,8.6,4.8,13.1,6.8c1.8,0.8,3.6,1.4,5.5,1.8c1.5,0.2,3,0.2,4.5,0.1l8.7-0.3
				c0.8,0,1.8-0.3,1.9-1.1c0-0.5-0.5-1-0.9-1.3c-1.5-1-3.2-1.7-5-2.2c-1.7-0.5-3.9-0.1-5.5-0.7c-1.8-0.6-3.9-2.7-5.5-3.8l-9.3-6.4
				l3.6-6.6L146.5,114.8z"/>
			<path class="st3" d="M159.9,88.7c-2.6,1.1-4.4,2.7-5,5.4c-1,4.1-3.1,7.6-5,11.3c-1.2,2.3-2.2,4.6-3,7.1c-0.3,0.7-0.4,1.5-0.3,2.3
				c0.2,0.6,0.5,1.2,0.9,1.6c2.3,3.2,4.7,6.4,7.2,9.5c1.5-0.7,3-1.5,4.3-2.5c0.5-0.8,0.3-2.9,0.4-3.8c0.1-2,0.3-4,0.4-6.1
				L159.9,88.7z"/>
		</g>
	</g>
	<g id="lowerbody">
		<path class="st5" d="M153.6,174.4c-0.9,3.3-1.5,7.1,0.3,10.1c1.2,1.8,2.9,3.2,4.9,3.9s4.1,1.2,6.3,1.3c13.1,1.5,26.4,0.8,39.2-2.1
			c1.8-0.2,3.5-1,4.9-2.2c1.1-1.4,1.8-3.1,1.9-4.9c0.8-6.4-0.6-12.8-3.8-18.3c-0.2-0.5-0.6-0.8-1-1.1c-0.4-0.2-0.9-0.3-1.3-0.2
			l-33.3,0.1c-2.4,0.1-4.8,0-7.2-0.3c-1.9-0.2-4-1.4-5.3,0.2C156.2,164.3,154.7,170.3,153.6,174.4z"/>
		
			<linearGradient id="SVGID_2_" gradientUnits="userSpaceOnUse" x1="279.1165" y1="498.517" x2="274.9864" y2="418.927" gradientTransform="matrix(1 0 0 1 -96.21 -303.39)">
			<stop  offset="1.000000e-02" style="stop-color:#000000"/>
			<stop  offset="8.000000e-02" style="stop-color:#000000;stop-opacity:0.69"/>
			<stop  offset="0.21" style="stop-color:#000000;stop-opacity:0.32"/>
			<stop  offset="1" style="stop-color:#000000;stop-opacity:0"/>
		</linearGradient>
		<path class="st6" d="M153.6,174.4c-0.9,3.3-1.5,7.1,0.3,10.1c1.2,1.8,2.9,3.2,4.9,3.9s4.1,1.2,6.3,1.3c13.1,1.5,26.4,0.8,39.2-2.1
			c1.8-0.2,3.5-1,4.9-2.2c1.1-1.4,1.8-3.1,1.9-4.9c0.8-6.4-0.6-12.8-3.8-18.3c-0.2-0.5-0.6-0.8-1-1.1c-0.4-0.2-0.9-0.3-1.3-0.2
			l-33.3,0.1c-2.4,0.1-4.8,0-7.2-0.3c-1.9-0.2-4-1.4-5.3,0.2C156.2,164.3,154.7,170.3,153.6,174.4z"/>
		<g id="rightLeg">
			<path class="st3" d="M165.4,235.5c-1,1.7-2.1,3.4-3.1,5.2c-1.5,2.7-2.5,5.9-1.5,8.9c0.1,0.5,0.4,1,0.8,1.3
				c0.5,0.4,1.1,0.6,1.7,0.6c2,0.3,4.1,0.5,6.1,0.5c2.8,0,5.8-0.3,7.9-2.2c4.2-3.8,3.9-13.1,1.5-17.7c-0.5-1.2-1.6-2-2.9-2
				c-1.9-0.4-3.8-0.5-5.7-0.3c-2.1,0.2-2.7,0.8-3.5,2.8C166.4,233.6,165.9,234.6,165.4,235.5z"/>
			<path class="st4" d="M170.9,235.9c0.5,0.1,1,0.1,1.5,0.1c1.6,0.1,3.3,0.1,4.4-1s1.1-2.7,1.1-4.3v-5.9c0-3.9-3.6-3.3-6.5-2.9
				c-0.7,0.1-1.3,0.3-1.8,0.7c-1,0.8-1.1,2.2-1.1,3.5l-0.2,6.2c-0.1,0.7,0,1.5,0.3,2.2C169.1,235.4,169.9,235.9,170.9,235.9z"/>
			<path class="st5" d="M174.8,228.6l-2,0.2c-5.9,0.6-8.3-4.4-8.9-10.3l-6.4-37c-0.5-2.9-0.9-5.8-1.2-8.8c-0.2-2-0.2-4.1,0.2-6.1
				s1.7-3.8,3.5-4.7c1-0.4,2-0.6,3-0.6c3.4-0.2,6.8-0.1,10.1,0.5c1.2,0.1,2.4,0.5,3.4,1.2c1,1,1.7,2.2,2,3.5c1,2.9,2.3,6.1,2,9.1
				c-0.2,2-0.4,3.9-0.3,5.9l0.3,13.1L181,216c0,0.1,0,0.2,0,0.4C181.7,222.3,180.6,228,174.8,228.6z"/>
		</g>
		<g id="leftLeg">
			<path class="st3" d="M202,235.5c1,1.7,2.1,3.4,3,5.2c1.5,2.7,2.5,5.9,1.5,8.9c-0.1,0.5-0.4,1-0.8,1.3c-0.5,0.4-1.1,0.6-1.7,0.6
				c-2,0.3-4.1,0.5-6.1,0.5c-2.8,0-5.8-0.3-7.9-2.2c-4.2-3.8-3.9-13.1-1.5-17.7c0.2-0.4,0.5-0.8,0.8-1.2c0.6-0.5,1.3-0.7,2.1-0.8
				c1.9-0.4,3.8-0.5,5.8-0.3c2.1,0.2,2.7,0.8,3.5,2.8C200.9,233.6,201.4,234.6,202,235.5z"/>
			<path class="st4" d="M196.5,235.9c-0.5,0.1-1,0.1-1.5,0.1c-1.6,0.1-3.3,0.1-4.4-1s-1.1-2.7-1.1-4.3v-5.9c0-3.9,3.6-3.3,6.5-2.9
				c0.7,0.1,1.3,0.3,1.9,0.7c1,0.8,1.1,2.2,1.1,3.5l0.2,6.2c0.1,0.7,0,1.5-0.3,2.2C198.2,235.4,197.4,235.9,196.5,235.9z"/>
			<path id="_x3C_Pad_x3E_" class="st5" d="M193.2,227.1l2,0.2c5.9,0.6,8.3-4.4,8.9-10.3c0.1-1.2,0.4-2.5,0.6-3.7l3.9-22.7l1.8-10.5
				c0.2-1.1,0.4-2.1,0.5-3.2c0.5-3.1-0.4-6-1-9.1c-0.4-1.9-0.8-3.9-2.2-5.1s-3.4-1.4-5.3-1.4c-4.9-0.2-10-0.4-14.8,0.7
				c-0.3,0-0.6,0.2-0.8,0.4c-0.1,0.3-0.2,0.5-0.1,0.8c0.4,4.7,1.1,9.4,1,14.1l-0.9,37.8C186.3,220.9,187.3,226.5,193.2,227.1z"/>
		</g>
	</g>
	<g id="face">
		<path class="st7" d="M178.4,78.2c0,0,1.6,9.9,5.8,8.2s5.3-7.5,5.3-7.5L178.4,78.2z"/>
		<path class="st4" d="M172.9,56c0,0,0.2,15.4,1.8,19.4s5.4,7.2,8.9,6.9s8.6-3.7,10.4-9.2s1.9-18.6,1.1-20.3s-4.8-6.9-14.1-5.3
			C174.6,48.8,172.7,53.7,172.9,56z"/>
		<path class="st4" d="M170.9,61.7c-0.1,0-0.2,0-0.4,0c-0.1,0.1-0.2,0.2-0.3,0.3c-0.4,0.7-0.5,1.6-0.4,2.4c0.2,0.7,0.4,1.3,0.8,1.9
			c0.3,1,1,1.8,1.8,2.5c0.2,0.1,0.4,0.2,0.6,0.1c0.1,0,0.3-0.1,0.4-0.2c0.5-0.6,0.8-1.4,0.8-2.2c0.2-1.1,0-2.3-0.6-3.3
			C173,62.4,172,61.8,170.9,61.7z"/>
		<path class="st4" d="M197.1,61.5c0.1,0,0.2,0,0.4,0c0.1,0.1,0.2,0.2,0.3,0.3c0.4,0.7,0.5,1.6,0.4,2.4c-0.2,0.7-0.4,1.3-0.8,1.9
			c-0.3,1-1,1.8-1.8,2.5c-0.2,0.1-0.4,0.2-0.6,0.2c-0.1,0-0.3-0.1-0.4-0.2c-0.5-0.6-0.8-1.4-0.8-2.2c-0.2-1.1,0-2.3,0.6-3.3
			C195.1,62.2,196.1,61.6,197.1,61.5z"/>
		<g id="hair">
			<path class="st8" d="M170.2,54.6c-0.3-2-0.4-4.3,1-5.8c0.3-0.3,0.6-0.6,0.9-0.9s0.8-0.9,1.1-1.4c2.4-2.5,5.7-4,9.1-3.9
				c3.4,0.1,6.8,0.7,10,1.9c1.8,0.6,3.6,1.2,5.4,1.9c0.7,0.2,1.3,0.6,1.9,1.1c0.8,0.9,1,2.1,0.6,3.2c-0.3,0.9-0.9,1.6-1.2,2.4
				c-0.1,0.7-0.2,1.4-0.2,2.1c-0.1,1.8-0.5,3.7-1.4,5.3c-0.5,1-1.3,1.9-2.3,2.4c0.1-2.5-0.3-5-1-7.4c-2.1,1.7-4.7,2.8-7.4,3
				s-5.4-0.1-8-0.9c-0.6-0.3-1.3-0.4-2-0.2c-0.6,0.2-1.2,1-0.8,1.5c-0.5-0.3-1.2-0.2-1.6,0.4l0,0c-0.3,0.5-0.4,1.1-0.4,1.8l-0.2,3.8
				C171.6,62.2,170.8,58.1,170.2,54.6z"/>
		</g>
	</g>
</g>
<g id="table">
	<path class="st5" d="M102.2,148.2l-1.4,8.5l-16.2,99.5c-0.1,1.3-1.2,2.4-2.5,2.5c-1.1,0-1.9-1.1-1.6-2.5l16.2-99.5l1.4-8.5
		L102.2,148.2L102.2,148.2z"/>
	<path class="st5" d="M263.2,148.2l1.4,8.5l16.2,99.5c0.1,1.3,1.2,2.4,2.5,2.5c1.1,0,1.9-1.1,1.6-2.5l-16.2-99.5l-1.4-8.5
		L263.2,148.2L263.2,148.2z"/>
	<path class="st5" d="M277.4,151.4v2.2c0,1.7-1.4,3.2-3.1,3.2l0,0H89.7c-1.7,0-3.2-1.4-3.2-3.1l0,0v-2.2c0-1.7,1.4-3.1,3.1-3.1
		h184.6C276,148.2,277.4,149.7,277.4,151.4z"/>
</g>
<g id="lamp_1">
	<path class="st3" d="M120.2,148.2H96c2.3-6.7,9.7-10.2,16.3-7.8C116,141.7,118.9,144.6,120.2,148.2z"/>
	<path class="st3" d="M92.6,101.2L92.6,101.2c1-0.3,2,0.2,2.3,1.1l13,38.1c0.3,1-0.2,2-1.1,2.3l0,0c-1,0.3-2-0.2-2.3-1.1l-13-38.1
		C91.1,102.6,91.6,101.6,92.6,101.2z"/>
	<path class="st3" d="M91.4,103.5L91.4,103.5c-0.3-1,0.2-2,1.2-2.3L131,89.1c1-0.3,2,0.2,2.3,1.2l0,0c0.3,1-0.2,2-1.2,2.3
		l-38.4,12.1C92.8,105,91.7,104.4,91.4,103.5z"/>
	
		<linearGradient id="SVGID_3_" gradientUnits="userSpaceOnUse" x1="192.21" y1="447.3116" x2="216.36" y2="447.3116" gradientTransform="matrix(1 0 0 1 -96.21 -303.39)">
		<stop  offset="1.000000e-02" style="stop-color:#000000"/>
		<stop  offset="8.000000e-02" style="stop-color:#000000;stop-opacity:0.69"/>
		<stop  offset="0.21" style="stop-color:#000000;stop-opacity:0.32"/>
		<stop  offset="1" style="stop-color:#000000;stop-opacity:0"/>
	</linearGradient>
	<path class="st9" d="M120.2,148.2H96c2.3-6.7,9.7-10.2,16.3-7.8C116,141.7,118.9,144.6,120.2,148.2z"/>
	
		<linearGradient id="SVGID_4_" gradientUnits="userSpaceOnUse" x1="187.5524" y1="425.3447" x2="204.2078" y2="425.3447" gradientTransform="matrix(1 0 0 1 -96.2101 -303.3947)">
		<stop  offset="1.000000e-02" style="stop-color:#000000"/>
		<stop  offset="8.000000e-02" style="stop-color:#000000;stop-opacity:0.69"/>
		<stop  offset="0.21" style="stop-color:#000000;stop-opacity:0.32"/>
		<stop  offset="1" style="stop-color:#000000;stop-opacity:0"/>
	</linearGradient>
	<path class="st10" d="M92.6,101.2L92.6,101.2c1-0.3,2,0.2,2.3,1.1l13,38.1c0.3,1-0.2,2-1.1,2.3l0,0c-1,0.3-2-0.2-2.3-1.1l-13-38.1
		C91.1,102.6,91.6,101.6,92.6,101.2z"/>
	
		<linearGradient id="SVGID_5_" gradientUnits="userSpaceOnUse" x1="187.5581" y1="400.2907" x2="229.631" y2="400.2907" gradientTransform="matrix(1 0 0 1 -96.1982 -303.3949)">
		<stop  offset="1.000000e-02" style="stop-color:#000000"/>
		<stop  offset="8.000000e-02" style="stop-color:#000000;stop-opacity:0.69"/>
		<stop  offset="0.21" style="stop-color:#000000;stop-opacity:0.32"/>
		<stop  offset="1" style="stop-color:#000000;stop-opacity:0"/>
	</linearGradient>
	<path class="st11" d="M91.4,103.5L91.4,103.5c-0.3-1,0.2-2,1.2-2.3L131,89.1c1-0.3,2,0.2,2.3,1.2l0,0c0.3,1-0.2,2-1.2,2.3
		l-38.4,12.1C92.8,105,91.7,104.4,91.4,103.5z"/>
	<path class="st3" d="M147.3,94c-3.1,4.4-6.8,7.3-8.3,6.5l0,0c-0.1,0-0.1-0.1-0.2-0.1l-0.2-0.1c-4.6-3.2-8.8-11.7-5.6-16.3
		s12.6-3.5,17.2-0.3l0.2,0.1c0.1,0,0.1,0.1,0.2,0.1l0,0C151.9,85.1,150.4,89.5,147.3,94z"/>
	<path class="st3" d="M147.3,94c-3.1,4.4-6.8,7.3-8.3,6.5l0,0l-0.1-0.1c0,0,0,0-0.1-0.1c-1.4-1.1,0-5.6,3.2-10.1s6.9-7.4,8.4-6.5
		h0.1l0.1,0.1l0,0C151.9,85.1,150.4,89.5,147.3,94z"/>
	<path class="st1" d="M147.3,94c-3.1,4.4-6.8,7.3-8.3,6.5l0,0l-0.1-0.1c0,0,0,0-0.1-0.1c-1.4-1.1,0-5.6,3.2-10.1s6.9-7.4,8.4-6.5
		h0.1l0.1,0.1l0,0C151.9,85.1,150.4,89.5,147.3,94z"/>
</g>
<g id="computer">
	<polygon class="st3" points="206.9,144.7 158.2,144.7 154,111.9 210.3,112.7 	"/>
	<rect x="158" y="144.7" class="st3" width="48.9" height="3.6"/>
	<rect x="158" y="144.7" class="st12" width="48.9" height="3.6"/>
	
		<linearGradient id="SVGID_6_" gradientUnits="userSpaceOnUse" x1="182.7787" y1="321.2293" x2="179.9587" y2="365.4293" gradientTransform="matrix(1 0 0 1 0 -218)">
		<stop  offset="1.000000e-02" style="stop-color:#000000"/>
		<stop  offset="8.000000e-02" style="stop-color:#000000;stop-opacity:0.69"/>
		<stop  offset="0.21" style="stop-color:#000000;stop-opacity:0.32"/>
		<stop  offset="1" style="stop-color:#000000;stop-opacity:0"/>
	</linearGradient>
	<polygon class="st13" points="156.1,110.3 154,111.9 210.4,112.7 208.4,110.8 	"/>
	<polygon class="st12" points="206.9,144.7 158.3,144.7 154,111.9 210.4,112.7 	"/>
</g>
<g id="book1">
	<path class="st3" d="M244.6,114.8h5.9c1.3,0,2.4,1.1,2.4,2.4v28.9c0,1.3-1.1,2.4-2.4,2.4h-5.9c-1.3,0-2.4-1.1-2.4-2.4v-28.9
		C242.2,115.8,243.3,114.8,244.6,114.8z"/>
</g>
<g id="book2">
	<path class="st3" d="M255,115l5.8-0.4c1.3-0.1,2.5,0.9,2.6,2.2l2,28.9c0.1,1.3-0.9,2.5-2.2,2.6l-5.8,0.4c-1.3,0.1-2.5-0.9-2.6-2.2
		l-2-28.9C252.7,116.2,253.7,115.1,255,115z"/>
</g>
<g id="lampShine">
	<g>
		<line class="st14" x1="242.3" y1="33.7" x2="242.2" y2="30.7"/>
		<path class="st14" d="M242.3,33.7c-0.2-0.5-0.3-1-0.3-1.5c0-0.5,0-1,0.2-1.5c0.2,0.5,0.3,1,0.3,1.5
			C242.5,32.7,242.5,33.2,242.3,33.7z"/>
	</g>
	<g>
		<line class="st14" x1="266.9" y1="55.4" x2="263.9" y2="55.5"/>
		<path class="st14" d="M266.9,55.4c-0.5,0.2-1,0.3-1.5,0.3c-0.5,0-1,0-1.5-0.2c0.5-0.2,1-0.3,1.5-0.3
			C265.9,55.2,266.4,55.3,266.9,55.4z"/>
	</g>
	<g>
		<line class="st14" x1="260.1" y1="38.2" x2="258.1" y2="40.4"/>
		<path class="st14" d="M260.1,38.2c-0.2,0.5-0.5,0.9-0.8,1.3c-0.3,0.4-0.7,0.7-1.2,0.9c0.2-0.5,0.5-0.9,0.8-1.3
			C259.3,38.8,259.6,38.4,260.1,38.2z"/>
	</g>
	<g>
		<line class="st14" x1="226" y1="40.7" x2="223.9" y2="38.7"/>
		<path class="st14" d="M226,40.7c-0.5-0.2-0.9-0.5-1.3-0.8c-0.4-0.3-0.7-0.7-0.9-1.2c0.5,0.2,0.9,0.5,1.3,0.8
			C225.5,39.9,225.8,40.2,226,40.7z"/>
	</g>
	<g>
		<line class="st14" x1="220" y1="55.5" x2="217.1" y2="55.6"/>
		<path class="st14" d="M220,55.5c-0.5,0.2-1,0.3-1.5,0.3c-0.5,0-1,0-1.5-0.2c0.5-0.2,1-0.3,1.5-0.3C219,55.3,219.5,55.3,220,55.5z"
			/>
	</g>
	<g class="st15">
		<line class="st14" x1="224.2" y1="49.6" x2="212" y2="45.3"/>
		<path class="st14" d="M224.2,49.6c-2.1-0.5-4.2-1.2-6.2-1.9c-2-0.7-4.1-1.5-6-2.4c2.1,0.5,4.2,1.2,6.2,1.9
			C220.2,48,222.3,48.7,224.2,49.6z"/>
	</g>
	<g class="st15">
		<line class="st14" x1="272.4" y1="43.6" x2="260.7" y2="49.2"/>
		<path class="st14" d="M272.4,43.6c-1.9,1.1-3.8,2.1-5.7,3c-2,0.9-3.9,1.8-6,2.6c1.9-1.1,3.8-2.1,5.7-3
			C268.4,45.3,270.4,44.4,272.4,43.6z"/>
	</g>
	<g class="st15">
		<line class="st14" x1="233.3" y1="39" x2="227.7" y2="27.3"/>
		<path class="st14" d="M233.3,39c-1.1-1.9-2.1-3.8-3-5.7c-0.9-2-1.8-3.9-2.6-6c1.1,1.9,2.1,3.8,3,5.7C231.7,35,232.5,37,233.3,39z"
			/>
	</g>
	<g class="st15">
		<line class="st14" x1="250.8" y1="39.3" x2="255.2" y2="27"/>
		<path class="st14" d="M250.8,39.3c0.5-2.1,1.2-4.2,1.9-6.2c0.7-2,1.5-4.1,2.4-6c-0.5,2.1-1.2,4.2-1.9,6.2
			C252.5,35.3,251.7,37.3,250.8,39.3z"/>
	</g>
</g>
<g id="lamp">
	<path class="st14" d="M258.8,56.4c-0.3,3.6-1.8,7.1-4.4,9.7c-2.3,2.2-3.9,5.1-4.7,8.2c-0.2,0.9-0.3,1.9-0.5,3h-14
		c-0.1-0.7-0.2-1.4-0.3-2.1c-0.6-3-2-5.8-4.1-8c-1.9-1.9-3.3-4.1-4.3-6.6c-3.1-8.7,1.4-18.3,10.1-21.5c0.9-0.3,1.9-0.6,2.9-0.8
		c0.5-0.1,0.9-0.1,1.3-0.2c9.2-0.8,17.3,6.1,18,15.2C259,54.4,259,55.4,258.8,56.4L258.8,56.4z"/>
	
		<linearGradient id="SVGID_7_" gradientUnits="userSpaceOnUse" x1="385.6172" y1="393.4989" x2="310.5373" y2="344.3089" gradientTransform="matrix(1 0 0 1 -96.21 -303.39)">
		<stop  offset="1.000000e-02" style="stop-color:#000000"/>
		<stop  offset="0.13" style="stop-color:#000000;stop-opacity:0.69"/>
		<stop  offset="0.25" style="stop-color:#000000;stop-opacity:0.32"/>
		<stop  offset="1" style="stop-color:#000000;stop-opacity:0"/>
	</linearGradient>
	<path class="st16" d="M256.1,56.4c-0.3,3.6-1.8,7.1-4.4,9.7c-2.3,2.2-3.9,5.1-4.7,8.2c-0.2,0.9-0.3,1.9-0.5,3h-11.2
		c-0.1-0.7-0.2-1.4-0.3-2.1c-0.6-3-2-5.8-4.1-8c-1.9-1.9-3.3-4.1-4.3-6.6c-3.1-8.7,1.4-18.3,10.1-21.5c0.9-0.3,1.9-0.6,2.9-0.8
		c0.5-0.1,0.9-0.1,1.3-0.2c9.2,0.8,16,8.8,15.3,18C256.1,56.2,256.1,56.3,256.1,56.4L256.1,56.4z"/>
	<path class="st3" d="M235.7,77.2h13.9c1,0,1.8,0.8,1.8,1.8l0,0c0,1-0.8,1.8-1.8,1.8h-13.9c-1,0-1.8-0.8-1.8-1.8l0,0
		C233.9,78,234.7,77.2,235.7,77.2z"/>
	<path class="st3" d="M236.1,80.3h12.4c0.9,0,1.6,0.7,1.6,1.6l0,0c0,0.9-0.7,1.6-1.6,1.6h-12.4c-0.9,0-1.6-0.7-1.6-1.6l0,0
		C234.5,81,235.2,80.3,236.1,80.3z"/>
	<path class="st3" d="M236.9,83h10.8c0.8,0,1.4,0.6,1.4,1.4l0,0c0,0.8-0.6,1.4-1.4,1.4h-10.8c-0.8,0-1.4-0.6-1.4-1.4l0,0
		C235.5,83.6,236.2,83,236.9,83z"/>
	
		<linearGradient id="SVGID_8_" gradientUnits="userSpaceOnUse" x1="242.6752" y1="290.05" x2="242.6252" y2="303.81" gradientTransform="matrix(1 0 0 1 0 -218)">
		<stop  offset="1.000000e-02" style="stop-color:#000000"/>
		<stop  offset="0.13" style="stop-color:#000000;stop-opacity:0.69"/>
		<stop  offset="0.25" style="stop-color:#000000;stop-opacity:0.32"/>
		<stop  offset="1" style="stop-color:#000000;stop-opacity:0"/>
	</linearGradient>
	<path class="st17" d="M235.7,77.2h13.9c1,0,1.8,0.8,1.8,1.8l0,0c0,1-0.8,1.8-1.8,1.8h-13.9c-1,0-1.8-0.8-1.8-1.8l0,0
		C233.9,78,234.7,77.2,235.7,77.2z"/>
	
		<linearGradient id="SVGID_9_" gradientUnits="userSpaceOnUse" x1="242.7034" y1="293.4084" x2="241.8334" y2="307.4084" gradientTransform="matrix(1 0 0 1 0 -218)">
		<stop  offset="1.000000e-02" style="stop-color:#000000"/>
		<stop  offset="0.13" style="stop-color:#000000;stop-opacity:0.69"/>
		<stop  offset="0.25" style="stop-color:#000000;stop-opacity:0.32"/>
		<stop  offset="1" style="stop-color:#000000;stop-opacity:0"/>
	</linearGradient>
	<path class="st18" d="M236.1,80.3h12.4c0.9,0,1.6,0.7,1.6,1.6l0,0c0,0.9-0.7,1.6-1.6,1.6h-12.4c-0.9,0-1.6-0.7-1.6-1.6l0,0
		C234.5,81,235.2,80.3,236.1,80.3z"/>
	
		<linearGradient id="SVGID_10_" gradientUnits="userSpaceOnUse" x1="242.5175" y1="297.2091" x2="242.0475" y2="308.4291" gradientTransform="matrix(1 0 0 1 0 -218)">
		<stop  offset="1.000000e-02" style="stop-color:#000000"/>
		<stop  offset="0.13" style="stop-color:#000000;stop-opacity:0.69"/>
		<stop  offset="0.25" style="stop-color:#000000;stop-opacity:0.32"/>
		<stop  offset="1" style="stop-color:#000000;stop-opacity:0"/>
	</linearGradient>
	<path class="st19" d="M236.9,83h10.8c0.8,0,1.4,0.6,1.4,1.4l0,0c0,0.8-0.6,1.4-1.4,1.4h-10.8c-0.8,0-1.4-0.6-1.4-1.4l0,0
		C235.5,83.6,236.2,83,236.9,83z"/>
	<path class="st3" d="M238.8,77.2c-0.1-2.6-0.4-5.1-1-7.6c-0.4-2.1-0.7-4.2-0.9-6.3c-0.2-3.2,0.4-5.4,1.9-6.8c0.3-0.3,0.6-0.5,1-0.5
		s0.8,0.2,1.1,0.4c0-0.1,0.1-0.1,0.1-0.2c0.3-0.3,0.6-0.6,1-0.7c0.4-0.1,0.8-0.1,1.2,0.2c0.3,0.2,0.5,0.4,0.6,0.6
		c0.4-0.3,0.9-0.4,1.4-0.3c0.9,0.2,1.5,1.1,1.8,2.5c0.6,3.3-0.1,6.7-0.8,10c-0.7,2.7-1,5.6-0.9,8.4l-1,0.1c-0.1-2.9,0.2-5.9,1-8.7
		c0.7-3.3,1.4-6.4,0.8-9.6c-0.1-0.6-0.4-1.5-1.1-1.7c-0.2,0-0.5,0-0.7,0.1c0.1,0.2,0.1,0.4,0.2,0.5c0.2,1,0.4,2,0.4,3
		c0,0.3-0.1,0.6-0.3,0.9c-0.2,0.2-0.5,0.2-0.8,0.2c-0.5-0.2-0.8-0.6-0.9-1.1c-0.3-0.9-0.4-1.9-0.2-2.9c0.1-0.3,0.2-0.6,0.4-0.8
		c-0.1-0.2-0.2-0.3-0.4-0.4c-0.1-0.1-0.3-0.1-0.4-0.1c-0.2,0.1-0.4,0.2-0.5,0.4c-0.1,0.1-0.1,0.2-0.2,0.3c0.8,1.1,1.2,2.5,1,3.9
		c-0.1,0.7-0.5,1.4-1.2,1.4c-0.5-0.1-0.9-0.4-1.1-0.9c-0.6-1.4-0.6-2.9,0.1-4.2l0,0c-0.2-0.2-0.4-0.3-0.5-0.3s-0.3,0.1-0.4,0.2
		c-1.3,1.2-1.8,3.2-1.6,6c0.2,2.1,0.5,4.1,0.9,6.2c0.6,2.6,0.9,5.2,1,7.8L238.8,77.2z M241.1,58.2c-0.3,0.9-0.3,2,0.1,2.9
		c0,0.1,0.1,0.2,0.2,0.3c0.1-0.1,0.2-0.3,0.2-0.5C241.7,60,241.5,59,241.1,58.2L241.1,58.2z M243.6,58.3c-0.1,0.7,0,1.5,0.2,2.1l0,0
		C243.9,59.7,243.8,59,243.6,58.3L243.6,58.3z"/>
</g>
</svg>
