<svg version="1.1" id="working" xmlns="http://www.w3.org/2000/svg" x="0" y="0" viewBox="0 0 328.2 279.4" xml:space="preserve"><style>.st0{opacity:.18;fill:#05386b;enable-background:new}.st1{fill:#fff}.st3{fill:#05386b}.st4{fill:#fdbaac}.st5{fill:#473f47}.st12{fill:gray}.st14{fill:#ff0}.st15{opacity:.2}</style><g id="background"><path class="st0" d="M274.3 30.6c-3.2-5.6-7.2-10.7-12-15C251 5.6 235.6 1.1 220.6.2s-30.1 1.6-45 4c-8.3 1.4-16.8 2.8-24.3 6.8-12.1 6.4-19.5 18.4-25.3 30.4-5.7 12-9.3 25.3-22.7 31-8.4 3.6-18.4 4.8-27.2 7.8-17 5.9-33.5 14-47.4 25.6C15.2 117.1 7.6 140.4 3.3 157s-4.9 34.6.4 51c8.6 26.4 31.8 46.1 57.5 56.4 25.8 10.4 54 12.6 81.7 13.5 24 .8 49.1 2.3 73 .5 9.4-.7 18.1-1.6 27.8-1.7 11.4 0 22.8-1.6 33.8-4.8 17.5-5.4 33.8-16.4 42.7-32.4 12-21.7 8.9-48.8.7-72.2s-20.8-45.2-27.6-69.1c-4-14.4-5.9-29.4-9.8-43.9-1.9-8.2-5.1-16.2-9.2-23.7z"/><path class="st0" d="M109.6 250.2c-3.3 1.4-6.8 4.7-5.5 8.1 14.5 5.3 30.3 5.3 45.7 5.2 37.4-.2 74.7-.3 112-.7 3.1 0 6.4-.1 9.1-1.6s4.7-4.9 3.5-7.8c-1.1-2.7-4.3-3.7-7.1-4.4-9.3-2.3-18.8-3.7-28.4-4.5-7.8-.6-16.6-1.1-21.6-7.1-1.9-2.3-3-5.1-5-7.3-11.7-13.1-39.1-7.3-49.1 3.9-15.2 17.2-34.7 8-53.6 16.2z"/></g><g id="chair"><path class="st1" d="M146.1 148c-2.2 6.4-4.1 12.9-4.2 19.6 0 6.7 2 13.7 6.8 18.5 7 7 17.8 7.8 27.6 8.2l13 .5c5.1.2 10.3.4 15.3-.6s9.9-3.4 13-7.5c2-2.9 3.3-6.2 3.9-9.7 3.5-17.1-2.2-35.3-12.9-49.1-3.1-4.2-6.9-7.8-11.3-10.7-7.2-4.6-28.7-11.5-35.8-3.8-3.2 3.5-5.2 10.6-7.3 14.8-3 6.5-5.7 13.1-8.1 19.8z"/><linearGradient id="SVGID_1_" gradientUnits="userSpaceOnUse" x1="280.209" y1="506.177" x2="273.449" y2="358.357" gradientTransform="translate(-96.21 -303.39)"><stop offset=".01"/><stop offset=".08" stop-opacity=".69"/><stop offset=".21" stop-opacity=".32"/><stop offset="1" stop-opacity="0"/></linearGradient><path d="M152.8 144.4c-1.8 5.1-3.4 10.4-3.4 15.9s1.6 11.1 5.5 14.9c5.6 5.6 14.4 6.3 22.3 6.6l10.5.4c4.1.3 8.3.2 12.4-.5 4-.8 8-2.8 10.5-6.1 1.6-2.3 2.7-5 3.2-7.8 2.9-13.8-1.8-28.6-10.5-39.7-2.5-3.4-5.6-6.3-9.1-8.7-5.8-3.7-23.2-9.3-28.9-3.1-2.6 2.8-4.2 8.6-5.9 12-2.5 5.3-4.7 10.6-6.6 16.1z" fill="url(#SVGID_1_)"/></g><g id="body"><g id="upperbody"><path class="st3" d="M193.7 84.1s12.2 5.3 13.6 6.5c1.3 1.1-2.2 74.3-2.5 77.9s-19.8 4.2-28.2 2.5c-5.6-1.1-11.1-2.8-16.5-5 0 0-2.7-75.6-1-77s17.8-6.3 17.8-6.3l16.8 1.4z"/><path class="st4" d="M189.3 74.9c.1.5.2 1 .2 1.4.1 1.9-.1 3.9.5 5.8.2.7.5 1.3.9 1.9 1.4 2.2-.3 5.8-1.5 7.8-1.5 2.5-4 5-7.1 5.3-3.9.4-5.6-4-6.3-7.1-.4-1.8-.8-3.1-.1-4.8s1.7-3.4 2.2-5.3c.4-2.1.7-4.3.8-6.5 0-.6.2-1.2.5-1.7.5-.7 1.2-1.1 2-1.3.8-.1 1.6-.2 2.4-.1 1.2 0 2.4.3 3.5.9 1 1 1.8 2.3 2 3.7z"/><path class="st1" d="M176.2 82.9s-.6 8.3 3.2 13.6c0 0-1.2 2.2-2.4 2.3s-4.8-6.7-4-12.1c.4-3.1 2.5-4.6 3.2-3.8zM191 84s-3.7 11.5-7.7 13.1c0 0-1 .7 2 2.2s10.5-8.1 8.8-14.4c-.4-1.7-1.6-3-3.3-3.5l.2 2.6z"/><g id="rightArm"><path class="st4" d="M220 114.8s7.9 16.5 7.1 21c-.6 3.2-6.7 5.9-9.1 7.4s-4.8 3.2-7.3 4.2-5.3.6-7.9.5l-13-.4c-.6 0-1.5-.2-1.5-.9 0-.4.3-.7.6-.9 1-.7 2.1-1.1 3.3-1.2 2.8-.2 5.6-.7 8.3-1.6l15-10.3-3.6-6.7 8.1-11.1z"/><path class="st3" d="M220.3 106.8c1.3 1.8 2.2 3.2 2.4 3.5.3.4.6.9.8 1.4.1 1-.2 1.9-.8 2.7-1.4 2-3.4 3.4-5.2 5-2 2-3.8 4.2-5.4 6.6-1.2-.9-2.3-1.9-3.3-3-1.9-1.4-2.9-3.8-2.6-6.2l-.2-12.9-.1-6.4c0-1.1-1.4-6.1-.7-7 1.6-2.2 10.6 10 15.1 16.3z"/></g><g id="leftArm"><path class="st4" d="M146.5 114.8c-1.6 3.4-3.1 6.8-4.5 10.4-1 2.4-1.8 5-2.4 7.5-.2 1-.7 2.4-.3 3.4.6 1.5 2.9 2.7 4.2 3.5 4.2 2.6 8.6 4.8 13.1 6.8 1.8.8 3.6 1.4 5.5 1.8 1.5.2 3 .2 4.5.1l8.7-.3c.8 0 1.8-.3 1.9-1.1 0-.5-.5-1-.9-1.3-1.5-1-3.2-1.7-5-2.2-1.7-.5-3.9-.1-5.5-.7-1.8-.6-3.9-2.7-5.5-3.8l-9.3-6.4 3.6-6.6-8.1-11.1z"/><path class="st3" d="M159.9 88.7c-2.6 1.1-4.4 2.7-5 5.4-1 4.1-3.1 7.6-5 11.3-1.2 2.3-2.2 4.6-3 7.1-.3.7-.4 1.5-.3 2.3.2.6.5 1.2.9 1.6 2.3 3.2 4.7 6.4 7.2 9.5 1.5-.7 3-1.5 4.3-2.5.5-.8.3-2.9.4-3.8.1-2 .3-4 .4-6.1l.1-24.8z"/></g></g><g id="lowerbody"><path class="st5" d="M153.6 174.4c-.9 3.3-1.5 7.1.3 10.1 1.2 1.8 2.9 3.2 4.9 3.9s4.1 1.2 6.3 1.3c13.1 1.5 26.4.8 39.2-2.1 1.8-.2 3.5-1 4.9-2.2 1.1-1.4 1.8-3.1 1.9-4.9.8-6.4-.6-12.8-3.8-18.3-.2-.5-.6-.8-1-1.1-.4-.2-.9-.3-1.3-.2l-33.3.1c-2.4.1-4.8 0-7.2-.3-1.9-.2-4-1.4-5.3.2-3 3.4-4.5 9.4-5.6 13.5z"/><linearGradient id="SVGID_2_" gradientUnits="userSpaceOnUse" x1="279.116" y1="498.517" x2="274.986" y2="418.927" gradientTransform="translate(-96.21 -303.39)"><stop offset=".01"/><stop offset=".08" stop-opacity=".69"/><stop offset=".21" stop-opacity=".32"/><stop offset="1" stop-opacity="0"/></linearGradient><path d="M153.6 174.4c-.9 3.3-1.5 7.1.3 10.1 1.2 1.8 2.9 3.2 4.9 3.9s4.1 1.2 6.3 1.3c13.1 1.5 26.4.8 39.2-2.1 1.8-.2 3.5-1 4.9-2.2 1.1-1.4 1.8-3.1 1.9-4.9.8-6.4-.6-12.8-3.8-18.3-.2-.5-.6-.8-1-1.1-.4-.2-.9-.3-1.3-.2l-33.3.1c-2.4.1-4.8 0-7.2-.3-1.9-.2-4-1.4-5.3.2-3 3.4-4.5 9.4-5.6 13.5z" fill="url(#SVGID_2_)"/><g id="rightLeg"><path class="st3" d="M165.4 235.5c-1 1.7-2.1 3.4-3.1 5.2-1.5 2.7-2.5 5.9-1.5 8.9.1.5.4 1 .8 1.3.5.4 1.1.6 1.7.6 2 .3 4.1.5 6.1.5 2.8 0 5.8-.3 7.9-2.2 4.2-3.8 3.9-13.1 1.5-17.7-.5-1.2-1.6-2-2.9-2-1.9-.4-3.8-.5-5.7-.3-2.1.2-2.7.8-3.5 2.8-.3 1-.8 2-1.3 2.9z"/><path class="st4" d="M170.9 235.9c.5.1 1 .1 1.5.1 1.6.1 3.3.1 4.4-1s1.1-2.7 1.1-4.3v-5.9c0-3.9-3.6-3.3-6.5-2.9-.7.1-1.3.3-1.8.7-1 .8-1.1 2.2-1.1 3.5l-.2 6.2c-.1.7 0 1.5.3 2.2.5.9 1.3 1.4 2.3 1.4z"/><path class="st5" d="M174.8 228.6l-2 .2c-5.9.6-8.3-4.4-8.9-10.3l-6.4-37c-.5-2.9-.9-5.8-1.2-8.8-.2-2-.2-4.1.2-6.1s1.7-3.8 3.5-4.7c1-.4 2-.6 3-.6 3.4-.2 6.8-.1 10.1.5 1.2.1 2.4.5 3.4 1.2 1 1 1.7 2.2 2 3.5 1 2.9 2.3 6.1 2 9.1-.2 2-.4 3.9-.3 5.9l.3 13.1.5 21.4v.4c.7 5.9-.4 11.6-6.2 12.2z"/></g><g id="leftLeg"><path class="st3" d="M202 235.5c1 1.7 2.1 3.4 3 5.2 1.5 2.7 2.5 5.9 1.5 8.9-.1.5-.4 1-.8 1.3-.5.4-1.1.6-1.7.6-2 .3-4.1.5-6.1.5-2.8 0-5.8-.3-7.9-2.2-4.2-3.8-3.9-13.1-1.5-17.7.2-.4.5-.8.8-1.2.6-.5 1.3-.7 2.1-.8 1.9-.4 3.8-.5 5.8-.3 2.1.2 2.7.8 3.5 2.8.2 1 .7 2 1.3 2.9z"/><path class="st4" d="M196.5 235.9c-.5.1-1 .1-1.5.1-1.6.1-3.3.1-4.4-1s-1.1-2.7-1.1-4.3v-5.9c0-3.9 3.6-3.3 6.5-2.9.7.1 1.3.3 1.9.7 1 .8 1.1 2.2 1.1 3.5l.2 6.2c.1.7 0 1.5-.3 2.2-.7.9-1.5 1.4-2.4 1.4z"/><path id="_x3C_Pad_x3E_" class="st5" d="M193.2 227.1l2 .2c5.9.6 8.3-4.4 8.9-10.3.1-1.2.4-2.5.6-3.7l3.9-22.7 1.8-10.5c.2-1.1.4-2.1.5-3.2.5-3.1-.4-6-1-9.1-.4-1.9-.8-3.9-2.2-5.1s-3.4-1.4-5.3-1.4c-4.9-.2-10-.4-14.8.7-.3 0-.6.2-.8.4-.1.3-.2.5-.1.8.4 4.7 1.1 9.4 1 14.1l-.9 37.8c-.5 5.8.5 11.4 6.4 12z"/></g></g><g id="face"><path d="M178.4 78.2s1.6 9.9 5.8 8.2 5.3-7.5 5.3-7.5l-11.1-.7z" fill="#dea095"/><path class="st4" d="M172.9 56s.2 15.4 1.8 19.4 5.4 7.2 8.9 6.9 8.6-3.7 10.4-9.2 1.9-18.6 1.1-20.3-4.8-6.9-14.1-5.3c-6.4 1.3-8.3 6.2-8.1 8.5z"/><path class="st4" d="M170.9 61.7h-.4l-.3.3c-.4.7-.5 1.6-.4 2.4.2.7.4 1.3.8 1.9.3 1 1 1.8 1.8 2.5.2.1.4.2.6.1.1 0 .3-.1.4-.2.5-.6.8-1.4.8-2.2.2-1.1 0-2.3-.6-3.3-.6-.8-1.6-1.4-2.7-1.5zM197.1 61.5h.4l.3.3c.4.7.5 1.6.4 2.4-.2.7-.4 1.3-.8 1.9-.3 1-1 1.8-1.8 2.5-.2.1-.4.2-.6.2-.1 0-.3-.1-.4-.2-.5-.6-.8-1.4-.8-2.2-.2-1.1 0-2.3.6-3.3.7-.9 1.7-1.5 2.7-1.6z"/><path d="M170.2 54.6c-.3-2-.4-4.3 1-5.8l.9-.9c.3-.3.8-.9 1.1-1.4 2.4-2.5 5.7-4 9.1-3.9 3.4.1 6.8.7 10 1.9 1.8.6 3.6 1.2 5.4 1.9.7.2 1.3.6 1.9 1.1.8.9 1 2.1.6 3.2-.3.9-.9 1.6-1.2 2.4-.1.7-.2 1.4-.2 2.1-.1 1.8-.5 3.7-1.4 5.3-.5 1-1.3 1.9-2.3 2.4.1-2.5-.3-5-1-7.4-2.1 1.7-4.7 2.8-7.4 3s-5.4-.1-8-.9c-.6-.3-1.3-.4-2-.2-.6.2-1.2 1-.8 1.5-.5-.3-1.2-.2-1.6.4-.3.5-.4 1.1-.4 1.8l-.2 3.8c-2.1-2.7-2.9-6.8-3.5-10.3z" fill="sienna" id="hair"/></g></g><g id="table"><path class="st5" d="M102.2 148.2l-1.4 8.5-16.2 99.5c-.1 1.3-1.2 2.4-2.5 2.5-1.1 0-1.9-1.1-1.6-2.5l16.2-99.5 1.4-8.5h4.1zM263.2 148.2l1.4 8.5 16.2 99.5c.1 1.3 1.2 2.4 2.5 2.5 1.1 0 1.9-1.1 1.6-2.5l-16.2-99.5-1.4-8.5h-4.1z"/><path class="st5" d="M277.4 151.4v2.2c0 1.7-1.4 3.2-3.1 3.2H89.7c-1.7 0-3.2-1.4-3.2-3.1v-2.2c0-1.7 1.4-3.1 3.1-3.1h184.6c1.8-.2 3.2 1.3 3.2 3z"/></g><g id="lamp_1"><path class="st3" d="M120.2 148.2H96c2.3-6.7 9.7-10.2 16.3-7.8 3.7 1.3 6.6 4.2 7.9 7.8z"/><path class="st3" d="M92.6 101.2c1-.3 2 .2 2.3 1.1l13 38.1c.3 1-.2 2-1.1 2.3-1 .3-2-.2-2.3-1.1l-13-38.1c-.4-.9.1-1.9 1.1-2.3z"/><path class="st3" d="M91.4 103.5c-.3-1 .2-2 1.2-2.3L131 89.1c1-.3 2 .2 2.3 1.2.3 1-.2 2-1.2 2.3l-38.4 12.1c-.9.3-2-.3-2.3-1.2z"/><linearGradient id="SVGID_3_" gradientUnits="userSpaceOnUse" x1="192.21" y1="447.312" x2="216.36" y2="447.312" gradientTransform="translate(-96.21 -303.39)"><stop offset=".01"/><stop offset=".08" stop-opacity=".69"/><stop offset=".21" stop-opacity=".32"/><stop offset="1" stop-opacity="0"/></linearGradient><path d="M120.2 148.2H96c2.3-6.7 9.7-10.2 16.3-7.8 3.7 1.3 6.6 4.2 7.9 7.8z" fill="url(#SVGID_3_)"/><linearGradient id="SVGID_4_" gradientUnits="userSpaceOnUse" x1="187.552" y1="425.345" x2="204.208" y2="425.345" gradientTransform="translate(-96.21 -303.395)"><stop offset=".01"/><stop offset=".08" stop-opacity=".69"/><stop offset=".21" stop-opacity=".32"/><stop offset="1" stop-opacity="0"/></linearGradient><path d="M92.6 101.2c1-.3 2 .2 2.3 1.1l13 38.1c.3 1-.2 2-1.1 2.3-1 .3-2-.2-2.3-1.1l-13-38.1c-.4-.9.1-1.9 1.1-2.3z" fill="url(#SVGID_4_)"/><linearGradient id="SVGID_5_" gradientUnits="userSpaceOnUse" x1="187.558" y1="400.291" x2="229.631" y2="400.291" gradientTransform="translate(-96.198 -303.395)"><stop offset=".01"/><stop offset=".08" stop-opacity=".69"/><stop offset=".21" stop-opacity=".32"/><stop offset="1" stop-opacity="0"/></linearGradient><path d="M91.4 103.5c-.3-1 .2-2 1.2-2.3L131 89.1c1-.3 2 .2 2.3 1.2.3 1-.2 2-1.2 2.3l-38.4 12.1c-.9.3-2-.3-2.3-1.2z" fill="url(#SVGID_5_)"/><path class="st3" d="M147.3 94c-3.1 4.4-6.8 7.3-8.3 6.5-.1 0-.1-.1-.2-.1l-.2-.1c-4.6-3.2-8.8-11.7-5.6-16.3s12.6-3.5 17.2-.3l.2.1c.1 0 .1.1.2.1 1.3 1.2-.2 5.6-3.3 10.1z"/><path class="st3" d="M147.3 94c-3.1 4.4-6.8 7.3-8.3 6.5l-.1-.1-.1-.1c-1.4-1.1 0-5.6 3.2-10.1s6.9-7.4 8.4-6.5h.1l.1.1c1.3 1.3-.2 5.7-3.3 10.2z"/><path class="st1" d="M147.3 94c-3.1 4.4-6.8 7.3-8.3 6.5l-.1-.1-.1-.1c-1.4-1.1 0-5.6 3.2-10.1s6.9-7.4 8.4-6.5h.1l.1.1c1.3 1.3-.2 5.7-3.3 10.2z"/></g><g id="computer"><path class="st3" d="M206.9 144.7h-48.7l-4.2-32.8 56.3.8zM158 144.7h48.9v3.6H158z"/><path class="st12" d="M158 144.7h48.9v3.6H158z"/><linearGradient id="SVGID_6_" gradientUnits="userSpaceOnUse" x1="182.779" y1="321.229" x2="179.959" y2="365.429" gradientTransform="translate(0 -218)"><stop offset=".01"/><stop offset=".08" stop-opacity=".69"/><stop offset=".21" stop-opacity=".32"/><stop offset="1" stop-opacity="0"/></linearGradient><path fill="url(#SVGID_6_)" d="M156.1 110.3l-2.1 1.6 56.4.8-2-1.9z"/><path class="st12" d="M206.9 144.7h-48.6l-4.3-32.8 56.4.8z"/></g><path class="st3" d="M244.6 114.8h5.9c1.3 0 2.4 1.1 2.4 2.4v28.9c0 1.3-1.1 2.4-2.4 2.4h-5.9c-1.3 0-2.4-1.1-2.4-2.4v-28.9c0-1.4 1.1-2.4 2.4-2.4z" id="book1"/><path class="st3" d="M255 115l5.8-.4c1.3-.1 2.5.9 2.6 2.2l2 28.9c.1 1.3-.9 2.5-2.2 2.6l-5.8.4c-1.3.1-2.5-.9-2.6-2.2l-2-28.9c-.1-1.4.9-2.5 2.2-2.6z" id="book2"/><g id="lampShine"><path class="st14" d="M242.3 33.7l-.1-3M242.3 33.7c-.2-.5-.3-1-.3-1.5s0-1 .2-1.5c.2.5.3 1 .3 1.5s0 1-.2 1.5zM266.9 55.4l-3 .1M266.9 55.4c-.5.2-1 .3-1.5.3s-1 0-1.5-.2c.5-.2 1-.3 1.5-.3s1 .1 1.5.2zM260.1 38.2l-2 2.2M260.1 38.2c-.2.5-.5.9-.8 1.3-.3.4-.7.7-1.2.9.2-.5.5-.9.8-1.3.4-.3.7-.7 1.2-.9zM226 40.7l-2.1-2M226 40.7c-.5-.2-.9-.5-1.3-.8-.4-.3-.7-.7-.9-1.2.5.2.9.5 1.3.8.4.4.7.7.9 1.2zM220 55.5l-2.9.1M220 55.5c-.5.2-1 .3-1.5.3s-1 0-1.5-.2c.5-.2 1-.3 1.5-.3s1 0 1.5.2z"/><g class="st15"><path class="st14" d="M224.2 49.6L212 45.3M224.2 49.6c-2.1-.5-4.2-1.2-6.2-1.9s-4.1-1.5-6-2.4c2.1.5 4.2 1.2 6.2 1.9 2 .8 4.1 1.5 6 2.4z"/></g><g class="st15"><path class="st14" d="M272.4 43.6l-11.7 5.6M272.4 43.6c-1.9 1.1-3.8 2.1-5.7 3-2 .9-3.9 1.8-6 2.6 1.9-1.1 3.8-2.1 5.7-3 2-.9 4-1.8 6-2.6z"/></g><g class="st15"><path class="st14" d="M233.3 39l-5.6-11.7M233.3 39c-1.1-1.9-2.1-3.8-3-5.7-.9-2-1.8-3.9-2.6-6 1.1 1.9 2.1 3.8 3 5.7 1 2 1.8 4 2.6 6z"/></g><g class="st15"><path class="st14" d="M250.8 39.3l4.4-12.3M250.8 39.3c.5-2.1 1.2-4.2 1.9-6.2s1.5-4.1 2.4-6c-.5 2.1-1.2 4.2-1.9 6.2s-1.5 4-2.4 6z"/></g></g><g id="lamp"><path class="st14" d="M258.8 56.4c-.3 3.6-1.8 7.1-4.4 9.7-2.3 2.2-3.9 5.1-4.7 8.2-.2.9-.3 1.9-.5 3h-14l-.3-2.1c-.6-3-2-5.8-4.1-8-1.9-1.9-3.3-4.1-4.3-6.6-3.1-8.7 1.4-18.3 10.1-21.5.9-.3 1.9-.6 2.9-.8.5-.1.9-.1 1.3-.2 9.2-.8 17.3 6.1 18 15.2.2 1.1.2 2.1 0 3.1z"/><linearGradient id="SVGID_7_" gradientUnits="userSpaceOnUse" x1="385.617" y1="393.499" x2="310.537" y2="344.309" gradientTransform="translate(-96.21 -303.39)"><stop offset=".01"/><stop offset=".13" stop-opacity=".69"/><stop offset=".25" stop-opacity=".32"/><stop offset="1" stop-opacity="0"/></linearGradient><path d="M256.1 56.4c-.3 3.6-1.8 7.1-4.4 9.7-2.3 2.2-3.9 5.1-4.7 8.2-.2.9-.3 1.9-.5 3h-11.2l-.3-2.1c-.6-3-2-5.8-4.1-8-1.9-1.9-3.3-4.1-4.3-6.6-3.1-8.7 1.4-18.3 10.1-21.5.9-.3 1.9-.6 2.9-.8.5-.1.9-.1 1.3-.2 9.2.8 16 8.8 15.3 18-.1.1-.1.2-.1.3z" fill="url(#SVGID_7_)"/><path class="st3" d="M235.7 77.2h13.9c1 0 1.8.8 1.8 1.8s-.8 1.8-1.8 1.8h-13.9c-1 0-1.8-.8-1.8-1.8s.8-1.8 1.8-1.8z"/><path class="st3" d="M236.1 80.3h12.4c.9 0 1.6.7 1.6 1.6 0 .9-.7 1.6-1.6 1.6h-12.4c-.9 0-1.6-.7-1.6-1.6 0-.9.7-1.6 1.6-1.6z"/><path class="st3" d="M236.9 83h10.8c.8 0 1.4.6 1.4 1.4 0 .8-.6 1.4-1.4 1.4h-10.8c-.8 0-1.4-.6-1.4-1.4 0-.8.7-1.4 1.4-1.4z"/><linearGradient id="SVGID_8_" gradientUnits="userSpaceOnUse" x1="242.675" y1="290.05" x2="242.625" y2="303.81" gradientTransform="translate(0 -218)"><stop offset=".01"/><stop offset=".13" stop-opacity=".69"/><stop offset=".25" stop-opacity=".32"/><stop offset="1" stop-opacity="0"/></linearGradient><path d="M235.7 77.2h13.9c1 0 1.8.8 1.8 1.8s-.8 1.8-1.8 1.8h-13.9c-1 0-1.8-.8-1.8-1.8s.8-1.8 1.8-1.8z" fill="url(#SVGID_8_)"/><linearGradient id="SVGID_9_" gradientUnits="userSpaceOnUse" x1="242.703" y1="293.408" x2="241.833" y2="307.408" gradientTransform="translate(0 -218)"><stop offset=".01"/><stop offset=".13" stop-opacity=".69"/><stop offset=".25" stop-opacity=".32"/><stop offset="1" stop-opacity="0"/></linearGradient><path d="M236.1 80.3h12.4c.9 0 1.6.7 1.6 1.6 0 .9-.7 1.6-1.6 1.6h-12.4c-.9 0-1.6-.7-1.6-1.6 0-.9.7-1.6 1.6-1.6z" fill="url(#SVGID_9_)"/><linearGradient id="SVGID_10_" gradientUnits="userSpaceOnUse" x1="242.518" y1="297.209" x2="242.048" y2="308.429" gradientTransform="translate(0 -218)"><stop offset=".01"/><stop offset=".13" stop-opacity=".69"/><stop offset=".25" stop-opacity=".32"/><stop offset="1" stop-opacity="0"/></linearGradient><path d="M236.9 83h10.8c.8 0 1.4.6 1.4 1.4 0 .8-.6 1.4-1.4 1.4h-10.8c-.8 0-1.4-.6-1.4-1.4 0-.8.7-1.4 1.4-1.4z" fill="url(#SVGID_10_)"/><path class="st3" d="M238.8 77.2c-.1-2.6-.4-5.1-1-7.6-.4-2.1-.7-4.2-.9-6.3-.2-3.2.4-5.4 1.9-6.8.3-.3.6-.5 1-.5s.8.2 1.1.4c0-.1.1-.1.1-.2.3-.3.6-.6 1-.7.4-.1.8-.1 1.2.2.3.2.5.4.6.6.4-.3.9-.4 1.4-.3.9.2 1.5 1.1 1.8 2.5.6 3.3-.1 6.7-.8 10-.7 2.7-1 5.6-.9 8.4l-1 .1c-.1-2.9.2-5.9 1-8.7.7-3.3 1.4-6.4.8-9.6-.1-.6-.4-1.5-1.1-1.7-.2 0-.5 0-.7.1.1.2.1.4.2.5.2 1 .4 2 .4 3 0 .3-.1.6-.3.9-.2.2-.5.2-.8.2-.5-.2-.8-.6-.9-1.1-.3-.9-.4-1.9-.2-2.9.1-.3.2-.6.4-.8-.1-.2-.2-.3-.4-.4-.1-.1-.3-.1-.4-.1-.2.1-.4.2-.5.4-.1.1-.1.2-.2.3.8 1.1 1.2 2.5 1 3.9-.1.7-.5 1.4-1.2 1.4-.5-.1-.9-.4-1.1-.9-.6-1.4-.6-2.9.1-4.2-.2-.2-.4-.3-.5-.3s-.3.1-.4.2c-1.3 1.2-1.8 3.2-1.6 6 .2 2.1.5 4.1.9 6.2.6 2.6.9 5.2 1 7.8h-1zm2.3-19c-.3.9-.3 2 .1 2.9 0 .1.1.2.2.3.1-.1.2-.3.2-.5.1-.9-.1-1.9-.5-2.7zm2.5.1c-.1.7 0 1.5.2 2.1.1-.7 0-1.4-.2-2.1z"/></g></svg>